<?xml version="1.0" standalone="no"?>
<!DOCTYPE svg PUBLIC "-//W3C//DTD SVG 20010904//EN"
 "http://www.w3.org/TR/2001/REC-SVG-20010904/DTD/svg10.dtd">
<svg version="1.0" xmlns="http://www.w3.org/2000/svg"
 width="46.000000pt" height="46.000000pt" viewBox="0 0 46.000000 46.000000"
 preserveAspectRatio="xMidYMid meet">
<metadata>
Created by potrace 1.16, written by Peter Selinger 2001-2019
</metadata>
<g transform="translate(0.000000,46.000000) scale(0.007667,-0.007667)"
fill="#000000" stroke="none">
<path d="M600 3131 l0 -351 113 0 c242 1 327 48 327 183 0 89 -49 166 -117
183 -31 8 -29 19 8 41 67 40 89 134 49 212 -31 62 -70 75 -237 79 l-143 4 0
-351z m309 309 c105 -53 105 -183 1 -244 -29 -18 -56 -22 -162 -25 l-128 -3 0
146 0 146 125 0 c105 0 132 -3 164 -20z m-13 -301 c33 -9 55 -23 84 -56 67
-76 66 -161 0 -224 -49 -46 -103 -59 -250 -59 l-110 0 0 175 0 175 116 0 c63
0 135 -5 160 -11z"/>
<path d="M1381 3422 c-21 -47 -65 -146 -111 -247 -64 -139 -159 -355 -164
-372 -4 -13 -4 -23 1 -23 4 0 27 44 50 98 l42 97 209 3 209 2 47 -101 c25 -56
49 -99 52 -96 5 4 -59 154 -201 472 -42 94 -104 225 -107 225 -2 0 -14 -26
-27 -58z m132 -201 c48 -110 87 -204 87 -210 0 -8 -58 -11 -191 -11 l-191 0 6
24 c3 13 25 66 49 117 25 52 63 138 87 191 24 56 47 95 54 92 6 -3 50 -94 99
-203z"/>
<path d="M1822 3134 l3 -349 140 0 c182 1 242 21 281 97 20 38 20 138 0 176
-19 36 -69 80 -102 88 -33 8 -30 18 10 43 49 31 69 66 69 126 0 64 -22 107
-70 136 -34 22 -52 24 -186 28 l-147 3 2 -348z m308 308 c99 -50 106 -180 12
-242 -34 -22 -49 -24 -169 -28 l-133 -4 0 146 0 146 128 0 c101 0 134 -4 162
-18z m38 -326 c57 -39 86 -102 79 -167 -7 -61 -29 -91 -87 -120 -39 -20 -64
-24 -182 -27 l-138 -4 0 177 0 177 143 -4 c139 -3 145 -4 185 -32z"/>
<path d="M2405 3307 l125 -174 0 -164 c0 -90 4 -170 9 -177 16 -26 21 17 21
180 l0 161 125 174 c69 96 119 173 111 171 -8 -2 -65 -75 -128 -162 -62 -88
-117 -160 -123 -160 -5 -1 -60 71 -123 159 -62 88 -120 161 -128 163 -7 2 42
-75 111 -171z"/>
<path d="M2960 3475 c0 -3 0 -159 0 -347 l-1 -343 203 0 203 0 3 62 3 62 -138
3 -138 3 -3 283 -2 282 -65 0 c-36 0 -65 -2 -65 -5z"/>
<path d="M3737 3448 c-8 -18 -32 -73 -55 -123 -127 -283 -232 -526 -232 -535
0 -6 28 -10 68 -10 l68 0 29 63 30 62 171 3 171 2 28 -65 27 -65 69 0 c42 0
69 4 69 10 0 6 -67 163 -150 348 l-149 337 -65 3 -65 3 -14 -33z m142 -281
c28 -67 51 -128 51 -135 0 -9 -30 -12 -113 -12 -63 0 -116 3 -120 6 -3 3 6 32
20 63 14 31 39 89 55 129 17 39 36 72 43 72 7 0 35 -55 64 -123z"/>
<path d="M4285 3467 c-3 -6 -4 -163 -3 -347 l3 -335 68 -3 67 -3 0 217 0 217
23 -21 c12 -11 92 -109 177 -216 l155 -195 53 -1 52 0 0 350 0 351 -67 -3 -68
-3 -5 -215 -5 -215 -96 120 c-52 66 -130 164 -172 218 l-77 97 -51 0 c-31 0
-51 -5 -54 -13z"/>
<path d="M5020 3476 c0 -3 0 -160 0 -348 l-1 -343 128 -3 c190 -5 269 17 359
100 24 22 56 66 71 97 25 49 28 67 28 151 0 81 -4 103 -26 150 -34 72 -92 130
-165 166 -56 27 -67 28 -226 32 -93 2 -168 1 -168 -2z m307 -138 c143 -36 192
-241 87 -358 -45 -49 -110 -72 -196 -68 l-63 3 -3 205 c-1 112 0 210 2 217 7
17 110 17 173 1z"/>
</g>
</svg>
